<svg xmlns="http://www.w3.org/2000/svg" viewBox="0 0 64 64">
  <rect width="64" height="64" rx="14" fill="#f7f3eb" />
  <path
    fill="#111827"
    fill-rule="evenodd"
    d="M15 12 25 7l7 5-4 4v10l5-4V11l4-3c10 1 16 6 16 13 0 6-4 10-10 12 7 2 11 6 11 12 0 8-7 13-19 13H21l-7-7 5-5V18l-4-6Zm13 18 5-4v8l-5 4v-8Zm0 12 5-4v13h3c6 0 9-2 9-6s-4-6-11-6l-6 3Zm13-13c3-2 5-4 5-7 0-4-3-6-8-7v17l3-3ZM19 51l5 5 5-5-5-5-5 5Z"
  />
  <path d="M11 17 19 9l4 4-8 8-4-4Zm13 39 5-5 5 5-5 5-5-5Z" fill="#7f1d1d" />
</svg>
